0
SECTION
2
HEADER
9
$INSUNITS
70
4
9
$ACADVER
1
AC1014
9
$HANDSEED
5
FFFF
0
ENDSEC
0
SECTION
2
TABLES
0
TABLE
2
VPORT
5
8
100
AcDbSymbolTable
0
ENDTAB
0
TABLE
2
LTYPE
5
5
100
AcDbSymbolTable
0
LTYPE
5
14
100
AcDbSymbolTableRecord
100
AcDbLinetypeTableRecord
2
BYBLOCK
70
0
0
LTYPE
5
15
100
AcDbSymbolTableRecord
100
AcDbLinetypeTableRecord
2
BYLAYER
70
0
0
ENDTAB
0
TABLE
2
LAYER
5
2
100
AcDbSymbolTable
70
2
0
LAYER
5
50
100
AcDbSymbolTableRecord
100
AcDbLayerTableRecord
2
0
70
0
6
CONTINUOUS
0
ENDTAB
0
TABLE
2
STYLE
5
3
100
AcDbSymbolTable
70
1
0
STYLE
5
11
100
AcDbSymbolTableRecord
100
AcDbTextStyleTableRecord
2
STANDARD
70
0
0
ENDTAB
0
TABLE
2
VIEW
5
6
100
AcDbSymbolTable
70
0
0
ENDTAB
0
TABLE
2
UCS
5
7
100
AcDbSymbolTable
70
0
0
ENDTAB
0
TABLE
2
APPID
5
9
100
AcDbSymbolTable
70
2
0
APPID
5
12
100
AcDbSymbolTableRecord
100
AcDbRegAppTableRecord
2
ACAD
70
0
0
ENDTAB
0
TABLE
2
DIMSTYLE
5
A
100
AcDbSymbolTable
70
1
0
ENDTAB
0
TABLE
2
BLOCK_RECORD
5
1
100
AcDbSymbolTable
70
1
0
BLOCK_RECORD
5
1F
100
AcDbSymbolTableRecord
100
AcDbBlockTableRecord
2
*MODEL_SPACE
0
BLOCK_RECORD
5
1B
100
AcDbSymbolTableRecord
100
AcDbBlockTableRecord
2
*PAPER_SPACE
0
ENDTAB
0
ENDSEC
0
SECTION
2
BLOCKS
0
BLOCK
5
20
100
AcDbEntity
100
AcDbBlockBegin
2
*MODEL_SPACE
0
ENDBLK
5
21
100
AcDbEntity
100
AcDbBlockEnd
0
BLOCK
5
1C
100
AcDbEntity
100
AcDbBlockBegin
2
*PAPER_SPACE
0
ENDBLK
5
1D
100
AcDbEntity
100
AcDbBlockEnd
0
ENDSEC
0
SECTION
2
ENTITIES
0
LWPOLYLINE
5
100
100
AcDbEntity
8
0
100
AcDbPolyline
90
8
70
1
43
0.0
10
-5.7432499999999997
20
-20.075000000000006
10
-5.7432500000000042
20
-34.075000000000003
42
-0.41421356237309681
10
-6.4932499999999971
20
-34.825000000000003
10
-12.493250000000003
20
-34.82500000000001
42
-0.41421356237309331
10
-13.24325
20
-34.075000000000003
10
-13.24325
20
-20.075000000000003
42
-0.41421356237309509
10
-12.743250000000002
20
-19.575000000000003
10
-6.243249999999998
20
-19.575000000000006
42
-0.4142135623730937
0
LWPOLYLINE
5
101
100
AcDbEntity
8
0
100
AcDbPolyline
90
8
70
1
43
0.0
10
-69.700000000000003
20
-73.675000000000011
42
0.41421356237310542
10
-69.200000000000003
20
-73.175000000000011
10
-69.200000000000003
20
-60.174999999999997
42
0.41421356237310542
10
-69.700000000000003
20
-59.675000000000004
10
-82.700000000000017
20
-59.675000000000004
42
0.41421356237307427
10
-83.200000000000003
20
-60.174999999999997
10
-83.200000000000017
20
-73.175000000000011
42
0.41421356237307944
10
-82.700000000000017
20
-73.675000000000011
0
LWPOLYLINE
5
102
100
AcDbEntity
8
0
100
AcDbPolyline
90
8
70
1
43
0.0
10
-107.80000000000001
20
-73.675000000000011
42
0.41421356237310542
10
-107.30000000000001
20
-73.175000000000011
10
-107.30000000000001
20
-60.174999999999997
42
0.4142135623731002
10
-107.80000000000001
20
-59.674999999999997
10
-120.8
20
-59.675000000000004
42
0.41421356237307427
10
-121.29999999999998
20
-60.174999999999997
10
-121.30000000000001
20
-73.175000000000011
42
0.41421356237307944
10
-120.8
20
-73.675000000000011
0
LWPOLYLINE
5
103
100
AcDbEntity
8
0
100
AcDbPolyline
90
8
70
1
43
0.0
10
-5.4062500000000018
20
-54.625
10
-23.168749999999996
20
-54.625
42
-0.41421356237309509
10
-23.668749999999999
20
-54.125000000000007
10
-23.668749999999996
20
-41.125
42
-0.41421356237309509
10
-23.168749999999996
20
-40.625
10
-5.4062500000000018
20
-40.625
42
-0.41421356237309437
10
-4.90625
20
-41.125
10
-4.9062500000000044
20
-54.125000000000007
42
-0.41421356237309437
0
LWPOLYLINE
5
104
100
AcDbEntity
8
0
100
AcDbPolyline
90
8
70
1
43
0.0
10
-7.7875000000000032
20
-73.675000000000011
42
0.41421356237309692
10
-7.2875000000000014
20
-73.175000000000011
10
-7.2874999999999996
20
-60.174999999999997
42
0.41421356237309759
10
-7.7875000000000032
20
-59.675000000000004
10
-20.787499999999998
20
-59.675000000000004
42
0.41421356237310281
10
-21.287500000000001
20
-60.174999999999997
10
-21.287500000000001
20
-73.175000000000011
42
0.41421356237310281
10
-20.787499999999998
20
-73.674999999999997
0
LWPOLYLINE
5
105
100
AcDbEntity
8
0
100
AcDbPolyline
90
8
70
1
43
0.0
10
-169.71250000000001
20
-54.625
42
0.41421356237307427
10
-169.21249999999998
20
-54.125000000000007
10
-169.21250000000001
20
-41.125
42
0.41421356237313145
10
-169.71250000000001
20
-40.625
10
-182.71250000000003
20
-40.625
42
0.4142135623730222
10
-183.21250000000003
20
-41.125
10
-183.21250000000003
20
-54.125000000000007
42
0.41421356237312101
10
-182.71250000000003
20
-54.625
0
LWPOLYLINE
5
106
100
AcDbEntity
8
0
100
AcDbPolyline
90
8
70
1
43
0.0
10
-136.375
20
-16.525000000000006
42
0.41421356237307289
10
-135.875
20
-16.025000000000009
10
-135.875
20
-3.0250000000000021
42
0.41421356237307361
10
-136.375
20
-2.524999999999995
10
-149.375
20
-2.524999999999995
42
0.41421356237309437
10
-149.875
20
-3.0250000000000021
10
-149.875
20
-16.025000000000009
42
0.41421356237309637
10
-149.375
20
-16.525000000000016
0
LWPOLYLINE
5
107
100
AcDbEntity
8
0
100
AcDbPolyline
90
8
70
1
43
0.0
10
-31.600000000000001
20
-16.525000000000006
42
0.41421356237309637
10
-31.100000000000001
20
-16.025000000000009
10
-31.100000000000001
20
-3.0250000000000021
42
0.4142135623730957
10
-31.600000000000001
20
-2.524999999999995
10
-44.600000000000009
20
-2.524999999999995
42
0.41421356237309109
10
-45.099999999999994
20
-3.0250000000000021
10
-45.099999999999994
20
-16.025000000000009
42
0.41421356237307944
10
-44.600000000000009
20
-16.525000000000006
0
LWPOLYLINE
5
108
100
AcDbEntity
8
0
100
AcDbPolyline
90
8
70
1
43
0.0
10
-203.02500000000003
20
-3.2749999999999915
42
0.41421356237314622
10
-203.77500000000003
20
-4.0249999999999986
10
-203.77500000000001
20
-18.025000000000002
42
0.41421356237314622
10
-203.02500000000003
20
-18.774999999999999
10
-197.02500000000001
20
-18.774999999999999
42
0.41421356237309587
10
-196.27500000000001
20
-18.025000000000002
10
-196.27500000000001
20
-4.0249999999999986
42
0.41421356237314622
10
-197.02500000000001
20
-3.2749999999999897
0
LWPOLYLINE
5
109
100
AcDbEntity
8
0
100
AcDbPolyline
90
8
70
1
43
0.0
10
-3.0250000000000012
20
-92.725000000000009
42
0.41421356237310575
10
-2.525000000000011
20
-92.224999999999994
10
-2.5249999999999999
20
-79.225000000000009
42
0.4142135623730947
10
-3.0250000000000021
20
-78.725000000000009
10
-16.024999999999995
20
-78.725000000000009
42
0.41421356237308854
10
-16.524999999999999
20
-79.225000000000009
10
-16.525000000000002
20
-92.224999999999994
42
0.41421356237309759
10
-16.024999999999995
20
-92.725000000000009
0
LWPOLYLINE
5
110
100
AcDbEntity
8
0
100
AcDbPolyline
90
8
70
1
43
0.0
10
-54.625
20
-92.22499999999998
42
0.41421356237305862
10
-54.125000000000014
20
-92.724999999999994
10
-41.125000000000007
20
-92.725000000000009
42
0.4142135623731002
10
-40.625
20
-92.224999999999994
10
-40.625
20
-79.225000000000009
42
0.4142135623731002
10
-41.125000000000007
20
-78.725000000000009
10
-54.125000000000014
20
-78.725000000000009
42
0.41421356237308465
10
-54.625
20
-79.225000000000009
0
LWPOLYLINE
5
111
100
AcDbEntity
8
0
100
AcDbPolyline
90
8
70
1
43
0.0
10
-264.96249999999998
20
-16.525000000000006
42
0.41421356237307683
10
-264.46249999999998
20
-16.025000000000009
10
-264.46249999999998
20
-3.0250000000000021
42
0.41421356237313273
10
-264.96249999999998
20
-2.524999999999995
10
-277.96249999999998
20
-2.524999999999995
42
0.41421356237310153
10
-278.46250000000003
20
-3.0250000000000021
10
-278.46250000000003
20
-16.025000000000009
42
0.41421356237312362
10
-277.96249999999998
20
-16.525000000000006
0
LWPOLYLINE
5
112
100
AcDbEntity
8
0
100
AcDbPolyline
90
8
70
1
43
0.0
10
-154.63750000000002
20
-35.075000000000003
42
0.41421356237309243
10
-154.13749999999999
20
-35.575000000000003
10
-141.13749999999999
20
-35.575000000000003
42
0.41421356237310542
10
-140.63749999999999
20
-35.075000000000003
10
-140.63749999999999
20
-22.075000000000003
42
0.41421356237309243
10
-141.13749999999999
20
-21.575000000000006
10
-154.13749999999999
20
-21.575000000000006
42
0.41421356237310542
10
-154.63750000000002
20
-22.075000000000003
0
LWPOLYLINE
5
113
100
AcDbEntity
8
0
100
AcDbPolyline
90
8
70
1
43
0.0
10
-117.32500000000002
20
-92.725000000000009
42
0.41421356237309509
10
-116.82500000000002
20
-92.224999999999994
10
-116.82500000000002
20
-79.225000000000009
42
0.41421356237309509
10
-117.32500000000002
20
-78.724999999999994
10
-130.32499999999999
20
-78.725000000000009
42
0.41421356237308982
10
-130.82499999999999
20
-79.225000000000009
10
-130.82499999999999
20
-92.224999999999994
42
0.41421356237309509
10
-130.32499999999999
20
-92.725000000000009
0
LWPOLYLINE
5
114
100
AcDbEntity
8
0
100
AcDbPolyline
90
8
70
1
43
0.0
10
-126.06250000000001
20
-54.125000000000007
42
0.41421356237307427
10
-125.5625
20
-54.625000000000014
10
-112.56250000000001
20
-54.625
42
0.41421356237308982
10
-112.0625
20
-54.125000000000007
10
-112.0625
20
-41.125
42
0.41421356237309509
10
-112.56250000000001
20
-40.624999999999993
10
-125.5625
20
-40.625
42
0.414213562373069
10
-126.06250000000001
20
-41.125
0
LWPOLYLINE
5
115
100
AcDbEntity
8
0
100
AcDbPolyline
90
8
70
1
43
0.0
10
-160.1875
20
-35.575000000000003
42
0.41421356237309509
10
-159.6875
20
-35.075000000000003
10
-159.6875
20
-22.075000000000003
42
0.41421356237309243
10
-160.1875
20
-21.575000000000006
10
-173.1875
20
-21.575000000000006
42
0.41421356237304557
10
-173.68750000000003
20
-22.075000000000003
10
-173.68750000000003
20
-35.075000000000003
42
0.4142135623731002
10
-173.1875
20
-35.57500000000001
0
LWPOLYLINE
5
116
100
AcDbEntity
8
0
100
AcDbPolyline
90
8
70
1
43
0.0
10
-60.174999999999997
20
-92.725000000000009
42
0.41421356237310542
10
-59.675000000000011
20
-92.224999999999994
10
-59.675000000000004
20
-79.225000000000009
42
0.41421356237309509
10
-60.174999999999997
20
-78.725000000000009
10
-73.174999999999997
20
-78.725000000000009
42
0.41421356237309509
10
-73.674999999999997
20
-79.225000000000009
10
-73.674999999999997
20
-92.224999999999994
42
0.41421356237308982
10
-73.174999999999997
20
-92.725000000000009
0
LWPOLYLINE
5
117
100
AcDbEntity
8
0
100
AcDbPolyline
90
8
70
1
43
0.0
10
-240.65000000000001
20
-60.174999999999997
10
-240.65000000000003
20
-73.175000000000011
42
-0.4142135623730222
10
-241.15000000000003
20
-73.675000000000011
10
-254.15000000000003
20
-73.675000000000011
42
-0.41421356237313667
10
-254.65000000000003
20
-73.175000000000011
10
-254.65000000000006
20
-60.174999999999997
42
-0.41421356237307427
10
-254.15000000000003
20
-59.675000000000004
10
-241.15000000000003
20
-59.675000000000011
42
-0.41421356237312629
0
LWPOLYLINE
5
118
100
AcDbEntity
8
0
100
AcDbPolyline
90
8
70
1
43
0.0
10
-64.9375
20
-35.575000000000003
42
0.41421356237309759
10
-64.437500000000014
20
-35.075000000000003
10
-64.4375
20
-22.075000000000003
42
0.41421356237309759
10
-64.9375
20
-21.575000000000006
10
-77.9375
20
-21.575000000000006
42
0.41421356237309509
10
-78.4375
20
-22.075000000000003
10
-78.4375
20
-35.075000000000003
42
0.41421356237309509
10
-77.9375
20
-35.575000000000003
0
LWPOLYLINE
5
119
100
AcDbEntity
8
0
100
AcDbPolyline
90
8
70
1
43
0.0
10
-164.95000000000002
20
-73.675000000000011
42
0.41421356237307427
10
-164.44999999999996
20
-73.175000000000011
10
-164.44999999999999
20
-60.174999999999997
42
0.41421356237313667
10
-164.95000000000002
20
-59.674999999999997
10
-177.94999999999999
20
-59.675000000000004
42
0.41421356237307427
10
-178.44999999999999
20
-60.174999999999997
10
-178.44999999999999
20
-73.175000000000011
42
0.41421356237313667
10
-177.94999999999999
20
-73.674999999999997
0
LWPOLYLINE
5
120
100
AcDbEntity
8
0
100
AcDbPolyline
90
8
70
1
43
0.0
10
-88.725000000000009
20
-3.2749999999999915
42
0.41421356237310364
10
-89.475000000000037
20
-4.0249999999999986
10
-89.475000000000023
20
-18.025000000000002
42
0.41421356237310458
10
-88.725000000000009
20
-18.775000000000009
10
-82.724999999999994
20
-18.774999999999999
42
0.4142135623731219
10
-81.974999999999994
20
-18.025000000000002
10
-81.97499999999998
20
-4.0249999999999986
42
0.41421356237310364
10
-82.724999999999994
20
-3.2749999999999897
0
LWPOLYLINE
5
121
100
AcDbEntity
8
0
100
AcDbPolyline
90
8
70
1
43
0.0
10
-55.412500000000016
20
-16.525000000000006
42
0.41421356237310802
10
-54.912500000000009
20
-16.025000000000009
10
-54.912500000000009
20
-3.0250000000000021
42
0.41421356237310902
10
-55.412500000000016
20
-2.524999999999995
10
-68.412499999999994
20
-2.524999999999995
42
0.41421356237309792
10
-68.912500000000009
20
-3.0250000000000021
10
-68.912499999999994
20
-16.025000000000009
42
0.41421356237309509
10
-68.412499999999994
20
-16.525000000000006
0
LWPOLYLINE
5
122
100
AcDbEntity
8
0
100
AcDbPolyline
90
8
70
1
43
0.0
10
-217.33750000000001
20
-16.525000000000006
42
0.41421356237304557
10
-216.83750000000001
20
-16.025000000000009
10
-216.83750000000001
20
-3.0250000000000021
42
0.41421356237310153
10
-217.33750000000001
20
-2.524999999999995
10
-230.33750000000001
20
-2.524999999999995
42
0.41421356237313273
10
-230.83750000000003
20
-3.0250000000000021
10
-230.83750000000003
20
-16.025000000000009
42
0.41421356237313406
10
-230.33750000000001
20
-16.525000000000016
0
LWPOLYLINE
5
123
100
AcDbEntity
8
0
100
AcDbPolyline
90
8
70
1
43
0.0
10
-36.362500000000004
20
-54.625
42
0.41421356237309509
10
-35.862500000000004
20
-54.125000000000007
10
-35.862500000000004
20
-41.125
42
0.41421356237309509
10
-36.362500000000004
20
-40.625
10
-49.362500000000011
20
-40.625
42
0.41421356237308465
10
-49.862499999999997
20
-41.125
10
-49.862499999999997
20
-54.125000000000007
42
0.41421356237308465
10
-49.362500000000011
20
-54.625
0
LWPOLYLINE
5
124
100
AcDbEntity
8
0
100
AcDbPolyline
90
8
70
1
43
0.0
10
-88.75
20
-73.675000000000011
42
0.41421356237310542
10
-88.25
20
-73.175000000000011
10
-88.25
20
-60.174999999999997
42
0.4142135623731002
10
-88.75
20
-59.674999999999997
10
-101.75
20
-59.675000000000004
42
0.41421356237310542
10
-102.25000000000001
20
-60.174999999999997
10
-102.25000000000001
20
-73.175000000000011
42
0.4142135623731002
10
-101.75
20
-73.674999999999997
0
LWPOLYLINE
5
125
100
AcDbEntity
8
0
100
AcDbPolyline
90
8
70
1
43
0.0
10
-73.962500000000006
20
-41.125
10
-73.962500000000006
20
-54.125000000000007
42
-0.41421356237309509
10
-74.462500000000006
20
-54.625
10
-87.46250000000002
20
-54.625000000000014
42
-0.41421356237307427
10
-87.96250000000002
20
-54.125000000000007
10
-87.96250000000002
20
-41.125
42
-0.414213562373069
10
-87.46250000000002
20
-40.625
10
-74.462500000000006
20
-40.625
42
-0.41421356237309509
0
LWPOLYLINE
5
126
100
AcDbEntity
8
0
100
AcDbPolyline
90
8
70
1
43
0.0
10
-22.074999999999996
20
-92.725000000000009
42
0.41421356237310542
10
-21.575000000000006
20
-92.224999999999994
10
-21.575000000000003
20
-79.225000000000009
42
0.41421356237308982
10
-22.074999999999996
20
-78.725000000000009
10
-35.075000000000003
20
-78.725000000000009
42
0.41421356237308726
10
-35.575000000000003
20
-79.225000000000009
10
-35.575000000000003
20
-92.224999999999994
42
0.41421356237310542
10
-35.075000000000003
20
-92.725000000000009
0
LWPOLYLINE
5
127
100
AcDbEntity
8
0
100
AcDbPolyline
90
8
70
1
43
0.0
10
-241.15000000000003
20
-16.525000000000006
42
0.41421356237304557
10
-240.65000000000001
20
-16.025000000000009
10
-240.65000000000001
20
-3.0250000000000021
42
0.41421356237310153
10
-241.15000000000003
20
-2.524999999999995
10
-254.15000000000003
20
-2.524999999999995
42
0.41421356237313273
10
-254.65000000000003
20
-3.0250000000000021
10
-254.65000000000003
20
-16.025000000000009
42
0.41421356237313406
10
-254.15000000000003
20
-16.525000000000016
0
LWPOLYLINE
5
128
100
AcDbEntity
8
0
100
AcDbPolyline
90
8
70
1
43
0.0
10
-174.47500000000002
20
-92.725000000000009
42
0.41421356237313667
10
-173.97500000000002
20
-92.224999999999994
10
-173.97500000000002
20
-79.225000000000009
42
0.41421356237313145
10
-174.47500000000002
20
-78.725000000000009
10
-187.47499999999999
20
-78.725000000000009
42
0.41421356237307427
10
-187.97499999999999
20
-79.225000000000009
10
-187.97499999999999
20
-92.224999999999994
42
0.41421356237313667
10
-187.47499999999999
20
-92.725000000000009
0
LWPOLYLINE
5
129
100
AcDbEntity
8
0
100
AcDbPolyline
90
8
70
1
43
0.0
10
-122.08750000000002
20
-35.575000000000003
42
0.41421356237310542
10
-121.58750000000001
20
-35.075000000000003
10
-121.58750000000001
20
-22.075000000000003
42
0.41421356237309243
10
-122.08750000000002
20
-21.574999999999996
10
-135.08750000000001
20
-21.575000000000006
42
0.41421356237307427
10
-135.58750000000001
20
-22.075000000000003
10
-135.58750000000001
20
-35.075000000000003
42
0.41421356237307161
10
-135.08750000000001
20
-35.57500000000001
0
LWPOLYLINE
5
130
100
AcDbEntity
8
0
100
AcDbPolyline
90
8
70
1
43
0.0
10
-55.412500000000016
20
-54.625
42
0.4142135623731002
10
-54.912500000000009
20
-54.125000000000007
10
-54.912500000000009
20
-41.125
42
0.4142135623731002
10
-55.412500000000016
20
-40.625
10
-68.412499999999994
20
-40.625
42
0.41421356237309509
10
-68.912499999999994
20
-41.125
10
-68.912499999999994
20
-54.125000000000007
42
0.41421356237309509
10
-68.412499999999994
20
-54.625
0
LWPOLYLINE
5
131
100
AcDbEntity
8
0
100
AcDbPolyline
90
8
70
1
43
0.0
10
-243.53125000000003
20
-35.575000000000003
42
0.41421356237307683
10
-243.03124999999997
20
-35.075000000000003
10
-243.03125
20
-22.075000000000003
42
0.41421356237313145
10
-243.53125000000003
20
-21.575000000000006
10
-256.53125
20
-21.575000000000006
42
0.41421356237304557
10
-257.03125000000006
20
-22.075000000000003
10
-257.03125000000006
20
-35.075000000000003
42
0.4142135623731002
10
-256.53125
20
-35.575000000000003
0
LWPOLYLINE
5
132
100
AcDbEntity
8
0
100
AcDbPolyline
90
8
70
1
43
0.0
10
-273.25675000000001
20
-53.875
42
0.41421356237309509
10
-272.50675000000007
20
-53.125
10
-272.50675000000007
20
-39.125
42
0.41421356237314533
10
-273.25675000000001
20
-38.375
10
-279.25675000000001
20
-38.375
42
0.41421356237308982
10
-280.00675000000001
20
-39.125
10
-280.00675000000001
20
-53.125
42
0.41421356237310891
10
-279.25675000000001
20
-53.875
0
LWPOLYLINE
5
133
100
AcDbEntity
8
0
100
AcDbPolyline
90
8
70
1
43
0.0
10
-264.96249999999998
20
-73.675000000000011
42
0.41421356237307427
10
-264.46249999999998
20
-73.175000000000011
10
-264.46249999999998
20
-60.174999999999997
42
0.41421356237313667
10
-264.96249999999998
20
-59.675000000000004
10
-277.96249999999998
20
-59.675000000000004
42
0.4142135623730222
10
-278.46250000000003
20
-60.174999999999997
10
-278.46250000000003
20
-73.175000000000011
42
0.41421356237312629
10
-277.96249999999998
20
-73.675000000000011
0
LWPOLYLINE
5
134
100
AcDbEntity
8
0
100
AcDbPolyline
90
8
70
1
43
0.0
10
-222.10000000000002
20
-73.675000000000011
42
0.4142135623730222
10
-221.60000000000002
20
-73.175000000000011
10
-221.59999999999999
20
-60.174999999999997
42
0.41421356237312629
10
-222.10000000000002
20
-59.675000000000004
10
-235.10000000000002
20
-59.675000000000004
42
0.41421356237307427
10
-235.60000000000002
20
-60.174999999999997
10
-235.60000000000002
20
-73.175000000000011
42
0.41421356237313667
10
-235.10000000000002
20
-73.675000000000011
0
LWPOLYLINE
5
135
100
AcDbEntity
8
0
100
AcDbPolyline
90
8
70
1
43
0.0
10
-249.38075000000001
20
-53.875
42
0.41421356237307427
10
-248.63075000000003
20
-53.125
10
-248.63075000000003
20
-39.125
42
0.41421356237311063
10
-249.38075000000001
20
-38.375
10
-255.38075000000003
20
-38.375
42
0.41421356237308982
10
-256.13075000000003
20
-39.125
10
-256.13075000000003
20
-53.125
42
0.41421356237310891
10
-255.38075000000003
20
-53.875
0
LWPOLYLINE
5
136
100
AcDbEntity
8
0
100
AcDbPolyline
90
8
70
1
43
0.0
10
-257.81875000000002
20
-54.625
42
0.41421356237307427
10
-257.31874999999997
20
-54.125000000000007
10
-257.31875000000002
20
-41.125
42
0.41421356237313145
10
-257.81875000000002
20
-40.625
10
-270.81875000000002
20
-40.625
42
0.4142135623730222
10
-271.31875000000002
20
-41.125
10
-271.31875000000002
20
-54.125000000000007
42
0.41421356237312101
10
-270.81875000000002
20
-54.625000000000014
0
LWPOLYLINE
5
137
100
AcDbEntity
8
0
100
AcDbPolyline
90
8
70
1
43
0.0
10
-188.76249999999999
20
-54.625
42
0.4142135623730222
10
-188.26250000000002
20
-54.125000000000007
10
-188.26249999999999
20
-41.125
42
0.41421356237312101
10
-188.76249999999999
20
-40.625
10
-201.76249999999999
20
-40.625
42
0.41421356237307427
10
-202.26249999999999
20
-41.125
10
-202.26249999999999
20
-54.125000000000007
42
0.41421356237313145
10
-201.76249999999999
20
-54.625
0
LWPOLYLINE
5
138
100
AcDbEntity
8
0
100
AcDbPolyline
90
8
70
1
43
0.0
10
-155.42500000000001
20
-92.725000000000009
42
0.41421356237307427
10
-154.92500000000001
20
-92.224999999999994
10
-154.92500000000001
20
-79.225000000000009
42
0.41421356237307427
10
-155.42500000000001
20
-78.725000000000009
10
-168.42500000000001
20
-78.725000000000009
42
0.4142135623730222
10
-168.92500000000001
20
-79.225000000000009
10
-168.92500000000001
20
-92.224999999999994
42
0.41421356237310542
10
-168.42500000000001
20
-92.725000000000009
0
LWPOLYLINE
5
139
100
AcDbEntity
8
0
100
AcDbPolyline
90
8
70
1
43
0.0
10
-150.66249999999999
20
-54.625
42
0.41421356237308982
10
-150.16249999999999
20
-54.125000000000007
10
-150.16249999999999
20
-41.125
42
0.41421356237309509
10
-150.66249999999999
20
-40.625
10
-163.66250000000002
20
-40.625
42
0.4142135623730222
10
-164.16250000000002
20
-41.125
10
-164.16250000000002
20
-54.125000000000007
42
0.41421356237312101
10
-163.66250000000002
20
-54.625000000000014
0
LWPOLYLINE
5
140
100
AcDbEntity
8
0
100
AcDbPolyline
90
8
70
1
43
0.0
10
-50.150000000000006
20
-60.174999999999997
10
-50.149999999999999
20
-73.175000000000011
42
-0.41421356237310542
10
-50.650000000000013
20
-73.675000000000011
10
-63.650000000000006
20
-73.675000000000011
42
-0.41421356237310542
10
-64.150000000000006
20
-73.175000000000011
10
-64.150000000000006
20
-60.174999999999997
42
-0.41421356237310542
10
-63.650000000000006
20
-59.675000000000004
10
-50.650000000000013
20
-59.675000000000011
42
-0.41421356237310542
0
LWPOLYLINE
5
141
100
AcDbEntity
8
0
100
AcDbPolyline
90
8
70
1
43
0.0
10
-131.61250000000001
20
-54.625
42
0.41421356237308982
10
-131.11250000000001
20
-54.125000000000007
10
-131.11250000000001
20
-41.125
42
0.41421356237309509
10
-131.61250000000001
20
-40.625
10
-144.61250000000001
20
-40.625
42
0.414213562373069
10
-145.11250000000001
20
-41.125
10
-145.11250000000001
20
-54.125000000000007
42
0.41421356237307427
10
-144.61250000000001
20
-54.625000000000014
0
LWPOLYLINE
5
142
100
AcDbEntity
8
0
100
AcDbPolyline
90
8
70
1
43
0.0
10
-45.88750000000001
20
-35.575000000000003
42
0.41421356237310802
10
-45.387500000000003
20
-35.075000000000003
10
-45.387500000000003
20
-22.075000000000003
42
0.41421356237310802
10
-45.88750000000001
20
-21.575000000000006
10
-58.887500000000017
20
-21.575000000000006
42
0.41421356237307944
10
-59.387500000000003
20
-22.075000000000003
10
-59.387500000000003
20
-35.075000000000003
42
0.41421356237307944
10
-58.887500000000017
20
-35.575000000000003
0
LWPOLYLINE
5
143
100
AcDbEntity
8
0
100
AcDbPolyline
90
8
70
1
43
0.0
10
-7.2874999999999988
20
-3.0250000000000021
10
-7.2875000000000032
20
-16.025000000000009
42
-0.4142135623730957
10
-7.7875000000000032
20
-16.525000000000006
10
-20.787499999999994
20
-16.525000000000006
42
-0.41421356237310153
10
-21.287500000000001
20
-16.025000000000009
10
-21.287500000000009
20
-3.0250000000000021
42
-0.41421356237309825
10
-20.787499999999998
20
-2.524999999999995
10
-7.7875000000000032
20
-2.5249999999999999
42
-0.41421356237309537
0
LWPOLYLINE
5
144
100
AcDbEntity
8
0
100
AcDbPolyline
90
8
70
1
43
0.0
10
-221.3125
20
-54.125000000000007
42
0.41421356237313145
10
-220.8125
20
-54.625
10
-207.8125
20
-54.625
42
0.4142135623730222
10
-207.3125
20
-54.125000000000007
10
-207.3125
20
-41.125
42
0.41421356237312101
10
-207.8125
20
-40.624999999999993
10
-220.8125
20
-40.625
42
0.41421356237307427
10
-221.3125
20
-41.125
0
LWPOLYLINE
5
145
100
AcDbEntity
8
0
100
AcDbPolyline
90
8
70
1
43
0.0
10
-145.90000000000001
20
-73.675000000000011
42
0.41421356237307427
10
-145.40000000000003
20
-73.175000000000011
10
-145.40000000000001
20
-60.174999999999997
42
0.41421356237307944
10
-145.90000000000001
20
-59.674999999999997
10
-158.90000000000001
20
-59.675000000000004
42
0.41421356237310542
10
-159.40000000000001
20
-60.174999999999997
10
-159.40000000000001
20
-73.175000000000011
42
0.4142135623731002
10
-158.90000000000001
20
-73.675000000000011
0
LWPOLYLINE
5
146
100
AcDbEntity
8
0
100
AcDbPolyline
90
8
70
1
43
0.0
10
-226.07500000000002
20
-92.224999999999994
42
0.41421356237313667
10
-225.57500000000002
20
-92.725000000000009
10
-212.57499999999999
20
-92.725000000000009
42
0.41421356237310542
10
-212.07499999999999
20
-92.224999999999994
10
-212.07499999999999
20
-79.225000000000009
42
0.41421356237312101
10
-212.57499999999999
20
-78.725000000000009
10
-225.57500000000002
20
-78.725000000000009
42
0.41421356237307427
10
-226.07500000000002
20
-79.225000000000009
0
LWPOLYLINE
5
147
100
AcDbEntity
8
0
100
AcDbPolyline
90
8
70
1
43
0.0
10
-231.625
20
-92.725000000000009
42
0.41421356237310542
10
-231.12500000000006
20
-92.224999999999994
10
-231.125
20
-79.225000000000009
42
0.41421356237312101
10
-231.625
20
-78.724999999999994
10
-244.62500000000003
20
-78.725000000000009
42
0.41421356237307427
10
-245.12500000000003
20
-79.225000000000009
10
-245.12500000000003
20
-92.224999999999994
42
0.41421356237313667
10
-244.62500000000003
20
-92.725000000000009
0
LWPOLYLINE
5
148
100
AcDbEntity
8
0
100
AcDbPolyline
90
8
70
1
43
0.0
10
-179.23750000000001
20
-35.575000000000003
42
0.41421356237307683
10
-178.73749999999998
20
-35.075000000000003
10
-178.73750000000001
20
-22.075000000000003
42
0.41421356237313145
10
-179.23750000000001
20
-21.575000000000006
10
-192.23750000000001
20
-21.575000000000006
42
0.41421356237304557
10
-192.73750000000004
20
-22.075000000000003
10
-192.73750000000004
20
-35.075000000000003
42
0.4142135623731002
10
-192.23750000000001
20
-35.575000000000003
0
LWPOLYLINE
5
149
100
AcDbEntity
8
0
100
AcDbPolyline
90
8
70
1
43
0.0
10
-217.33750000000001
20
-35.575000000000003
42
0.41421356237304557
10
-216.83750000000001
20
-35.075000000000003
10
-216.83750000000001
20
-22.075000000000003
42
0.4142135623731002
10
-217.33750000000001
20
-21.574999999999996
10
-230.33750000000001
20
-21.575000000000006
42
0.41421356237307683
10
-230.83750000000003
20
-22.075000000000003
10
-230.83750000000003
20
-35.075000000000003
42
0.41421356237313145
10
-230.33750000000001
20
-35.57500000000001
0
LWPOLYLINE
5
150
100
AcDbEntity
8
0
100
AcDbPolyline
90
8
70
1
43
0.0
10
-136.375
20
-92.725000000000009
42
0.41421356237307427
10
-135.875
20
-92.224999999999994
10
-135.875
20
-79.225000000000009
42
0.41421356237307427
10
-136.375
20
-78.724999999999994
10
-149.375
20
-78.725000000000009
42
0.41421356237308982
10
-149.875
20
-79.225000000000009
10
-149.875
20
-92.224999999999994
42
0.41421356237309509
10
-149.375
20
-92.725000000000009
0
LWPOLYLINE
5
151
100
AcDbEntity
8
0
100
AcDbPolyline
90
8
70
1
43
0.0
10
-193.52500000000003
20
-92.725000000000009
42
0.41421356237313667
10
-193.02500000000003
20
-92.224999999999994
10
-193.02500000000003
20
-79.225000000000009
42
0.41421356237313145
10
-193.52500000000003
20
-78.725000000000009
10
-206.52500000000003
20
-78.725000000000009
42
0.4142135623730222
10
-207.02500000000003
20
-79.225000000000009
10
-207.02500000000003
20
-92.224999999999994
42
0.41421356237310542
10
-206.52500000000003
20
-92.725000000000009
0
LWPOLYLINE
5
152
100
AcDbEntity
8
0
100
AcDbPolyline
90
8
70
1
43
0.0
10
-83.487499999999983
20
-22.075000000000003
10
-83.487499999999983
20
-35.075000000000003
42
-0.41421356237310542
10
-83.987499999999997
20
-35.575000000000003
10
-96.987500000000011
20
-35.575000000000003
42
-0.41421356237309243
10
-97.487500000000011
20
-35.075000000000003
10
-97.487500000000011
20
-22.075000000000003
42
-0.41421356237310542
10
-96.987500000000011
20
-21.575000000000006
10
-83.987499999999997
20
-21.575000000000003
42
-0.41421356237309243
0
LWPOLYLINE
5
153
100
AcDbEntity
8
0
100
AcDbPolyline
90
8
70
1
43
0.0
10
-14.931249999999995
20
-35.575000000000003
42
0.4142135623730937
10
-14.43125
20
-35.075000000000003
10
-14.43125
20
-22.075000000000003
42
0.41421356237309243
10
-14.931249999999995
20
-21.575000000000006
10
-27.931249999999999
20
-21.575000000000006
42
0.41421356237309509
10
-28.431250000000002
20
-22.075000000000003
10
-28.431249999999999
20
-35.075000000000003
42
0.41421356237309509
10
-27.931249999999999
20
-35.575000000000003
0
LWPOLYLINE
5
154
100
AcDbEntity
8
0
100
AcDbPolyline
90
8
70
1
43
0.0
10
-226.86250000000001
20
-54.625
42
0.4142135623730222
10
-226.36250000000004
20
-54.125000000000007
10
-226.36250000000001
20
-41.125
42
0.41421356237312101
10
-226.86250000000001
20
-40.625
10
-239.86250000000001
20
-40.625
42
0.41421356237307427
10
-240.36250000000001
20
-41.125
10
-240.36250000000001
20
-54.125000000000007
42
0.41421356237313145
10
-239.86250000000001
20
-54.625000000000014
0
LWPOLYLINE
5
155
100
AcDbEntity
8
0
100
AcDbPolyline
90
8
70
1
43
0.0
10
-107.01250000000002
20
-54.125000000000007
42
0.41421356237309509
10
-106.51250000000002
20
-54.625000000000014
10
-93.512500000000003
20
-54.625
42
0.41421356237308982
10
-93.012499999999989
20
-54.125000000000007
10
-93.012499999999989
20
-41.125
42
0.41421356237309509
10
-93.512500000000003
20
-40.625
10
-106.51250000000002
20
-40.625
42
0.41421356237308982
10
-107.01250000000002
20
-41.125
0
LWPOLYLINE
5
156
100
AcDbEntity
8
0
100
AcDbPolyline
90
8
70
1
43
0.0
10
-198.28749999999999
20
-35.575000000000003
42
0.41421356237304557
10
-197.78749999999999
20
-35.075000000000003
10
-197.78749999999999
20
-22.075000000000003
42
0.4142135623731002
10
-198.28749999999999
20
-21.574999999999996
10
-211.28749999999999
20
-21.575000000000006
42
0.41421356237307683
10
-211.78750000000002
20
-22.075000000000003
10
-211.78750000000002
20
-35.075000000000003
42
0.41421356237313145
10
-211.28749999999999
20
-35.57500000000001
0
LWPOLYLINE
5
157
100
AcDbEntity
8
0
100
AcDbPolyline
90
8
70
1
43
0.0
10
-30.369250000000001
20
-34.825000000000003
42
0.41421356237309509
10
-29.619250000000005
20
-34.075000000000003
10
-29.619250000000005
20
-20.075000000000003
42
0.41421356237309681
10
-30.369250000000001
20
-19.325000000000006
10
-36.369249999999994
20
-19.325000000000006
42
0.41421356237310364
10
-37.119250000000001
20
-20.075000000000003
10
-37.119250000000001
20
-34.075000000000003
42
0.4142135623731002
10
-36.369249999999994
20
-34.825000000000003
0
LWPOLYLINE
5
158
100
AcDbEntity
8
0
100
AcDbPolyline
90
8
70
1
43
0.0
10
-103.03750000000001
20
-35.575000000000003
42
0.41421356237310542
10
-102.53749999999999
20
-35.075000000000003
10
-102.53749999999999
20
-22.075000000000003
42
0.41421356237309243
10
-103.03750000000001
20
-21.574999999999996
10
-116.03749999999999
20
-21.575000000000006
42
0.41421356237307427
10
-116.53750000000001
20
-22.075000000000003
10
-116.53750000000001
20
-35.075000000000003
42
0.41421356237307161
10
-116.03749999999999
20
-35.57500000000001
0
LWPOLYLINE
5
159
100
AcDbEntity
8
0
100
AcDbPolyline
90
8
70
1
43
0.0
10
-98.275000000000006
20
-92.725000000000009
42
0.41421356237309509
10
-97.775000000000006
20
-92.224999999999994
10
-97.775000000000006
20
-79.225000000000009
42
0.41421356237309509
10
-98.275000000000006
20
-78.725000000000009
10
-111.27500000000001
20
-78.725000000000009
42
0.41421356237308982
10
-111.77500000000002
20
-79.225000000000009
10
-111.77500000000002
20
-92.224999999999994
42
0.41421356237309509
10
-111.27500000000001
20
-92.725000000000009
0
LWPOLYLINE
5
160
100
AcDbEntity
8
0
100
AcDbPolyline
90
8
70
1
43
0.0
10
-31.600000000000001
20
-73.675000000000011
42
0.41421356237309759
10
-31.099999999999998
20
-73.175000000000011
10
-31.100000000000001
20
-60.174999999999997
42
0.41421356237309759
10
-31.600000000000001
20
-59.675000000000004
10
-44.600000000000009
20
-59.675000000000004
42
0.41421356237308982
10
-45.099999999999994
20
-60.174999999999997
10
-45.099999999999994
20
-73.175000000000011
42
0.41421356237308982
10
-44.600000000000009
20
-73.674999999999997
0
LWPOLYLINE
5
161
100
AcDbEntity
8
0
100
AcDbPolyline
90
20
70
1
43
0.0
10
-250.67500000000001
20
-92.725000000000009
42
0.41421356237310542
10
-250.17500000000007
20
-92.224999999999994
10
-250.17500000000001
20
-79.225000000000009
42
0.41421356237312101
10
-250.67500000000001
20
-78.724999999999994
10
-251.262
20
-78.724999999999994
10
-251.262
20
-77.224999999999994
42
0.41421356237312629
10
-251.762
20
-76.725000000000009
10
-257.76200000000006
20
-76.725000000000009
42
0.4142135623730222
10
-258.26200000000006
20
-77.224999999999994
10
-258.26200000000006
20
-78.724999999999994
10
-275.13799999999998
20
-78.724999999999994
10
-275.13799999999998
20
-77.224999999999994
42
0.41421356237312629
10
-275.63800000000003
20
-76.725000000000009
10
-281.63799999999998
20
-76.725000000000009
42
0.41421356237307427
10
-282.13799999999998
20
-77.224999999999994
10
-282.13799999999998
20
-78.724999999999994
10
-282.72500000000002
20
-78.725000000000009
42
0.41421356237307427
10
-283.22500000000002
20
-79.225000000000009
10
-283.22500000000002
20
-92.224999999999994
42
0.41421356237313667
10
-282.72500000000002
20
-92.725000000000009
0
LWPOLYLINE
5
162
100
AcDbEntity
8
0
100
AcDbPolyline
90
8
70
1
43
0.0
10
-203.05000000000004
20
-73.675000000000011
42
0.41421356237307427
10
-202.54999999999998
20
-73.175000000000011
10
-202.55000000000001
20
-60.174999999999997
42
0.41421356237313667
10
-203.05000000000004
20
-59.674999999999997
10
-216.05000000000004
20
-59.675000000000004
42
0.4142135623730222
10
-216.55000000000004
20
-60.174999999999997
10
-216.55000000000004
20
-73.175000000000011
42
0.41421356237312629
10
-216.05000000000004
20
-73.674999999999997
0
LWPOLYLINE
5
163
100
AcDbEntity
8
0
100
AcDbPolyline
90
8
70
1
43
0.0
10
-269.72500000000002
20
-35.575000000000003
42
0.41421356237304557
10
-269.22500000000002
20
-35.075000000000003
10
-269.22500000000002
20
-22.075000000000003
42
0.4142135623731002
10
-269.72500000000002
20
-21.575000000000006
10
-282.72500000000002
20
-21.575000000000006
42
0.41421356237307683
10
-283.22500000000002
20
-22.075000000000003
10
-283.22500000000002
20
-35.075000000000003
42
0.41421356237313145
10
-282.72500000000002
20
-35.57500000000001
0
LWPOLYLINE
5
164
100
AcDbEntity
8
0
100
AcDbPolyline
90
8
70
1
43
0.0
10
-79.224999999999994
20
-92.725000000000009
42
0.41421356237310542
10
-78.725000000000009
20
-92.224999999999994
10
-78.724999999999994
20
-79.225000000000009
42
0.41421356237309509
10
-79.224999999999994
20
-78.725000000000009
10
-92.224999999999994
20
-78.725000000000009
42
0.41421356237308982
10
-92.725000000000009
20
-79.225000000000009
10
-92.725000000000009
20
-92.224999999999994
42
0.41421356237309509
10
-92.224999999999994
20
-92.725000000000009
0
LWPOLYLINE
5
165
100
AcDbEntity
8
0
100
AcDbPolyline
90
8
70
1
43
0.0
10
-126.85000000000001
20
-73.675000000000011
42
0.41421356237307427
10
-126.35000000000002
20
-73.175000000000011
10
-126.34999999999999
20
-60.174999999999997
42
0.41421356237307944
10
-126.85000000000001
20
-59.674999999999997
10
-139.84999999999999
20
-59.675000000000004
42
0.41421356237310542
10
-140.34999999999999
20
-60.174999999999997
10
-140.34999999999999
20
-73.175000000000011
42
0.4142135623731002
10
-139.84999999999999
20
-73.675000000000011
0
LWPOLYLINE
5
166
100
AcDbEntity
8
0
100
AcDbPolyline
90
8
70
1
43
0.0
10
-184.00000000000003
20
-73.675000000000011
42
0.41421356237307427
10
-183.49999999999997
20
-73.175000000000011
10
-183.5
20
-60.174999999999997
42
0.41421356237313667
10
-184.00000000000003
20
-59.675000000000004
10
-197.00000000000003
20
-59.675000000000004
42
0.4142135623730222
10
-197.50000000000003
20
-60.174999999999997
10
-197.50000000000003
20
-73.175000000000011
42
0.41421356237312629
10
-197.00000000000003
20
-73.674999999999997
0
LWPOLYLINE
5
167
100
AcDbEntity
8
0
100
AcDbPolyline
90
68
70
1
43
0.0
10
-284.75
20
3.4694469519536142e-15
42
0.41421356237310525
10
-285.75000000000006
20
-0.99999999999999634
10
-285.75
20
-94.25
42
0.41421356237310542
10
-284.75
20
-95.249999999999986
10
-245.75000000000003
20
-95.25
10
-245.75000000000003
20
-96.250000000000128
10
-269.25000000000006
20
-96.250000000000128
42
0.41421356237309853
10
-270.75
20
-97.750000000000128
10
-270.75
20
-98.500000000000099
42
0.41421356237310197
10
-269.25000000000006
20
-100.00000000000013
10
-212.25
20
-100.00000000000011
42
0.41421356237310197
10
-210.75000000000003
20
-98.500000000000099
10
-210.75000000000003
20
-97.750000000000114
42
0.41421356237310197
10
-212.25
20
-96.250000000000085
10
-235.75000000000003
20
-96.25
10
-235.75000000000003
20
-95.25
10
-147.87499999999523
20
-95.25
10
-147.87499999999491
20
-96.24999999999838
10
-171.37499999999878
20
-96.249999999996575
42
0.41421356237285573
10
-172.87499999999886
20
-97.749999999995239
10
-172.87499999999955
20
-98.499999999996533
42
0.41421356237334822
10
-171.3749999999996
20
-99.999999999997854
10
-114.37500000000352
20
-99.999999999998451
42
0.41421356237361528
10
-112.8750000000035
20
-98.499999999995836
10
-112.87500000000479
20
-97.749999999993349
42
0.41421356237279672
10
-114.37500000000591
20
-96.24999999999595
10
-137.87500000000475
20
-96.2500000000135
10
-137.87500000000475
20
-95.25
10
-50.000000000000014
20
-95.25
10
-50
20
-96.250000000000014
10
-73.5
20
-96.250000000000014
42
0.4142135623730881
10
-75
20
-97.750000000000028
10
-75
20
-98.500000000000014
42
0.4142135623730881
10
-73.5
20
-100.00000000000001
10
-16.500000000000004
20
-100.00000000000001
42
0.4142135623730907
10
-14.999999999999986
20
-98.500000000000014
10
-15
20
-97.75
42
0.41421356237309853
10
-16.5
20
-96.249999999999986
10
-40
20
-96.25
10
-39.999999999999993
20
-95.25
10
-1.0000000000000009
20
-95.25
42
0.41421356237309692
10
2.2204460492503131e-15
20
-94.25
10
0
20
-0.99999999999999645
42
0.41421356237309387
10
-0.99999999999999645
20
0
10
-40
20
0
10
-40
20
0.99999999999999212
10
-16.5
20
0.99999999999999112
42
0.41421356237309453
10
-15.000000000000002
20
2.4999999999999916
10
-15
20
3.2499999999999902
42
0.41421356237309759
10
-16.500000000000004
20
4.7499999999999893
10
-73.5
20
4.7499999999999698
42
0.41421356237309298
10
-75
20
3.2499999999999769
10
-75.000000000000014
20
2.4999999999999782
42
0.41421356237309231
10
-73.5
20
0.99999999999997113
10
-50.000000000000014
20
1
10
-50.000000000000014
20
0
10
-235.74615379240242
20
0
10
-235.75000000000003
20
0.99999260331620254
10
-212.25
20
0.99999260331622375
42
0.41421356237309981
10
-210.75000000000003
20
2.4999926033162239
10
-210.75000000000003
20
3.2499926033160378
42
0.41421356237313695
10
-212.2500000000002
20
4.7499926033160609
10
-269.25000000000023
20
4.7499926033089164
42
0.41421356237306134
10
-270.75
20
3.2499926033089155
10
-270.75
20
2.4999926033087281
42
0.41421356237309975
10
-269.25000000000006
20
0.99999260330871864
10
-245.75000000000003
20
0.99999260330872253
10
-245.75000000000028
20
-7.3966912775280669e-06
0
ENDSEC
0
SECTION
2
OBJECTS
0
DICTIONARY
5
C
100
AcDbDictionary
3
ACAD_GROUP
350
D
3
ACAD_MLINESTYLE
350
17
0
DICTIONARY
5
D
100
AcDbDictionary
0
DICTIONARY
5
1A
330
C
100
AcDbDictionary
0
DICTIONARY
5
17
100
AcDbDictionary
0
ENDSEC
0
EOF
